<svg xmlns="http://www.w3.org/2000/svg" version="1.1" xmlns:xlink="http://www.w3.org/1999/xlink" xmlns:svgjs="http://svgjs.com/svgjs" width="1000" height="1000"><rect width="1000" height="1000" rx="200" ry="200" fill="#000000"></rect><g transform="matrix(33.333333333333336,0,0,33.333333333333336,100,116.16666666666663)"><svg xmlns="http://www.w3.org/2000/svg" version="1.1" xmlns:xlink="http://www.w3.org/1999/xlink" xmlns:svgjs="http://svgjs.com/svgjs" width="24" height="24"><svg xmlns="http://www.w3.org/2000/svg" class="h-6 w-6" fill="none" viewBox="0 0 24 24" stroke="#ffffff" stroke-width="2">
  <path stroke-linecap="round" stroke-linejoin="round" d="M8 4H6a2 2 0 00-2 2v12a2 2 0 002 2h12a2 2 0 002-2V6a2 2 0 00-2-2h-2m-4-1v8m0 0l3-3m-3 3L9 8m-5 5h2.586a1 1 0 01.707.293l2.414 2.414a1 1 0 00.707.293h3.172a1 1 0 00.707-.293l2.414-2.414a1 1 0 01.707-.293H20"></path>
</svg></svg></g></svg>